<svg width="20" height="25" viewBox="0 0 20 25" fill="none" xmlns="http://www.w3.org/2000/svg">
<path d="M17.0363 12.6662C16.9516 12.5807 16.8511 12.513 16.7406 12.467C16.63 12.421 16.5117 12.3975 16.3922 12.398C16.2728 12.3984 16.1546 12.4227 16.0444 12.4695C15.9342 12.5163 15.8342 12.5847 15.75 12.6708C15.6658 12.7568 15.5992 12.8589 15.5539 12.9711C15.5085 13.0833 15.4854 13.2035 15.4858 13.3248C15.4863 13.4461 15.5102 13.5661 15.5563 13.678C15.6024 13.7899 15.6698 13.8915 15.7545 13.9769C16.5238 14.7497 17.1344 15.6698 17.551 16.6839C17.9677 17.6979 18.1821 18.7858 18.1818 19.8846C18.1818 21.0108 14.9909 22.6538 10 22.6538C5.00912 22.6538 1.81823 21.0108 1.81823 19.8846C1.81679 18.7931 2.0272 17.712 2.43744 16.703C2.84769 15.6941 3.44972 14.7772 4.20913 14.0046C4.37845 13.8317 4.47348 13.5977 4.47348 13.3538C4.47348 13.11 4.37845 12.876 4.20913 12.7031C4.0388 12.5312 3.80839 12.4347 3.56822 12.4347C3.32805 12.4347 3.09764 12.5312 2.92732 12.7031C1.9956 13.6438 1.25708 14.7631 0.75459 15.9958C0.252098 17.2286 -0.00437009 18.5504 5.63341e-05 19.8846C5.63341e-05 22.8846 5.15458 24.5 10 24.5C14.8454 24.5 20 22.8846 20 19.8846C20.0035 18.5418 19.7431 17.2117 19.2343 15.9723C18.7254 14.7328 17.9782 13.6088 17.0363 12.6662Z" fill="black"/>
<path d="M10 13.4231C11.2586 13.4231 12.489 13.0441 13.5354 12.3341C14.5819 11.6241 15.3976 10.615 15.8792 9.43426C16.3609 8.25357 16.4869 6.95437 16.2413 5.70096C15.9958 4.44754 15.3897 3.29621 14.4998 2.39254C13.6098 1.48888 12.4759 0.873479 11.2415 0.62416C10.0071 0.37484 8.72756 0.5028 7.56476 0.991858C6.40197 1.48092 5.40811 2.30911 4.70886 3.3717C4.00962 4.4343 3.6364 5.68357 3.6364 6.96154C3.6364 8.67525 4.30685 10.3188 5.50026 11.5305C6.69367 12.7423 8.31228 13.4231 10 13.4231ZM10 2.34616C10.899 2.34616 11.7778 2.61684 12.5253 3.12399C13.2728 3.63113 13.8554 4.35196 14.1994 5.19531C14.5435 6.03866 14.6335 6.96666 14.4581 7.86196C14.2827 8.75725 13.8498 9.57964 13.2141 10.2251C12.5784 10.8706 11.7685 11.3102 10.8868 11.4882C10.0051 11.6663 9.09112 11.5749 8.26055 11.2256C7.42998 10.8763 6.72008 10.2847 6.22062 9.52571C5.72116 8.76671 5.45458 7.87438 5.45458 6.96154C5.45458 5.73746 5.93347 4.56352 6.7859 3.69797C7.63834 2.83242 8.79449 2.34616 10 2.34616Z" fill="black"/>
</svg>
